<svg xmlns="http://www.w3.org/2000/svg" viewBox="0 0 135 135" id="university"><rect width="3.466" height="21.372" x="13.677" y="88.447" fill="#ab5033"></rect><path fill="#8eae1f" d="M27.3194332,91.0554581c0,3.4509354-2.7766018,6.2453537-6.227644,6.2453537       c-2.2710972,0-4.2671318-1.2153625-5.3405199-3.0339584c-1.0289888,1.7742538-2.9539843,2.9629669-5.1542568,2.9629669       c-3.3176284,0-6.0056477-2.6879654-6.0056477-5.9969254c0-0.7097473,0.1241026-1.40168,0.354764-2.0315552       C4.0501223,88.2876282,3.5,87.0545044,3.5,85.6794739c0-2.2355804,1.4727688-4.1251602,3.4954433-4.7638702       c0.266181-3.5662613,3.2379246-6.3695602,6.8752308-6.3695602c2.6169796,0,4.8880749,1.4548492,6.0502625,3.6017303       c0.5232658-0.1951904,1.0822697-0.2927628,1.6676941-0.2927628c2.7679386,0,4.9944191,2.2266922,4.9944191,4.9945221       c0,1.3572769-0.5410271,2.5992737-1.4192734,3.495285C26.4855862,87.4714279,27.3194332,89.1658707,27.3194332,91.0554581z"></path><path fill="#5f8c10" d="M11.181488 92.7638168c0 .3991852-.3193521.7230072-.7186241.7230072-.3991642 0-.7229567-.323822-.7229567-.7230072 0-.3992233.3237925-.7185745.7229567-.7185745C10.8621359 92.0452423 11.181488 92.3645935 11.181488 92.7638168zM11.181488 87.7495117c0 .3991928-.3193521.7230148-.7186241.7230148-.3991642 0-.7229567-.323822-.7229567-.7230148 0-.3992157.3237925-.7185669.7229567-.7185669C10.8621359 87.0309448 11.181488 87.350296 11.181488 87.7495117zM14.9833155 89.94841c0 .3991852-.3193531.7230072-.7186251.7230072-.3991632 0-.7229557-.323822-.7229557-.7230072 0-.3992233.3237925-.7185745.7229557-.7185745C14.6639624 89.2298355 14.9833155 89.5491867 14.9833155 89.94841zM16.8512974 85.2004166c0 .3991928-.3193531.7230072-.7186241.7230072-.3991642 0-.7229567-.3238144-.7229567-.7230072 0-.3992157.3237925-.7185669.7229567-.7185669C16.5319443 84.4818497 16.8512974 84.8012009 16.8512974 85.2004166zM20.8222065 80.97332c0 .3991928-.3193531.7230072-.718626.7230072-.3991623 0-.7229557-.3238144-.7229557-.7230072 0-.3992157.3237934-.7185669.7229557-.7185669C20.5028534 80.2547531 20.8222065 80.5741043 20.8222065 80.97332zM12.6230688 81.4008789c0 .3991852-.3193531.7230072-.7186251.7230072-.3991632 0-.7229557-.323822-.7229557-.7230072 0-.3992233.3237925-.7185745.7229557-.7185745C12.3037157 80.6823044 12.6230688 81.0016556 12.6230688 81.4008789zM24.1693516 83.6188812c0 .3991928-.3193531.7230072-.7186241.7230072-.3991642 0-.7229576-.3238144-.7229576-.7230072 0-.3992157.3237934-.7185745.7229576-.7185745C23.8499985 82.9003067 24.1693516 83.2196655 24.1693516 83.6188812zM15.9697351 79.1183395c0 .3991928-.3193531.7230072-.7186251.7230072-.3991632 0-.7229557-.3238144-.7229557-.7230072 0-.3992157.3237925-.7185745.7229557-.7185745C15.650382 78.399765 15.9697351 78.7191238 15.9697351 79.1183395zM7.626266 83.6188812c0 .3991928-.3193526.7230072-.7186246.7230072-.3991632 0-.7229562-.3238144-.7229562-.7230072 0-.3992157.3237929-.7185745.7229562-.7185745C7.3069134 82.9003067 7.626266 83.2196655 7.626266 83.6188812zM24.457056 91.2019806c0 .3991928-.3193512.7230148-.7186241.7230148-.3991623 0-.7229557-.323822-.7229557-.7230148 0-.3992157.3237934-.7185669.7229557-.7185669C24.1377048 90.4834137 24.457056 90.8027649 24.457056 91.2019806zM21.8677044 88.0372162c0 .3991928-.3193531.7230148-.7186241.7230148-.3991642 0-.7229557-.323822-.7229557-.7230148 0-.3992157.3237915-.7185669.7229557-.7185669C21.5483513 87.3186493 21.8677044 87.6380005 21.8677044 88.0372162zM19.6482601 92.7638168c0 .3991852-.3193531.7230072-.718626.7230072-.3991623 0-.7229557-.323822-.7229557-.7230072 0-.3992233.3237934-.7185745.7229557-.7185745C19.328907 92.0452423 19.6482601 92.3645935 19.6482601 92.7638168z"></path><path fill="#8eae1f" d="M3.5,111.3185425c0.3452997-2.1904526,4.3623013-3.9153137,9.2822313-3.9153137     c0.7933388,0,1.5575085,0.0453186,2.2830629,0.1302643c1.6059265-2.5149078,6.7235413-4.3501587,12.7988796-4.3501587     c7.3811913,0,13.3404465,2.6961975,13.3404465,6.0381393c0,0.7383881-0.3083382,1.442894-0.8463631,2.0970688H3.5z"></path><rect width="3.466" height="21.372" x="117.857" y="88.447" fill="#ab5033"></rect><path fill="#8eae1f" d="M107.6805649,91.0554581c0,3.4509354,2.7766037,6.2453537,6.2276459,6.2453537       c2.2710953,0,4.267128-1.2153625,5.3405228-3.0339584c1.0289841,1.7742538,2.9539795,2.9629669,5.1542511,2.9629669       c3.3176346,0,6.0056458-2.6879654,6.0056458-5.9969254c0-0.7097473-0.1240997-1.40168-0.3547668-2.0315552       C130.9498749,88.2876282,131.5,87.0545044,131.5,85.6794739c0-2.2355804-1.4727631-4.1251602-3.4954376-4.7638702       c-0.2661896-3.5662613-3.2379303-6.3695602-6.8752365-6.3695602c-2.6169815,0-4.8880768,1.4548492-6.0502625,3.6017303       c-0.5232697-0.1951904-1.0822678-0.2927628-1.6676941-0.2927628c-2.7679367,0-4.9944153,2.2266922-4.9944153,4.9945221       c0,1.3572769,0.5410233,2.5992737,1.4192657,3.495285C108.5144119,87.4714279,107.6805649,89.1658707,107.6805649,91.0554581z"></path><path fill="#5f8c10" d="M123.818512 92.7638168c0 .3991852.3193512.7230072.7186279.7230072.3991623 0 .7229538-.323822.7229538-.7230072 0-.3992233-.3237915-.7185745-.7229538-.7185745C124.1378632 92.0452423 123.818512 92.3645935 123.818512 92.7638168zM123.818512 87.7495117c0 .3991928.3193512.7230148.7186279.7230148.3991623 0 .7229538-.323822.7229538-.7230148 0-.3992157-.3237915-.7185669-.7229538-.7185669C124.1378632 87.0309448 123.818512 87.350296 123.818512 87.7495117zM120.0166855 89.94841c0 .3991852.3193512.7230072.7186203.7230072.3991699 0 .7229614-.323822.7229614-.7230072 0-.3992233-.3237915-.7185745-.7229614-.7185745C120.3360367 89.2298355 120.0166855 89.5491867 120.0166855 89.94841zM118.1487045 85.2004166c0 .3991928.3193512.7230072.7186203.7230072.3991623 0 .7229614-.3238144.7229614-.7230072 0-.3992157-.3237991-.7185669-.7229614-.7185669C118.4680557 84.4818497 118.1487045 84.8012009 118.1487045 85.2004166zM114.1777954 80.97332c0 .3991928.3193512.7230072.7186203.7230072.3991699 0 .7229614-.3238144.7229614-.7230072 0-.3992157-.3237915-.7185669-.7229614-.7185669C114.4971466 80.2547531 114.1777954 80.5741043 114.1777954 80.97332zM122.3769302 81.4008789c0 .3991852.3193512.7230072.7186279.7230072.3991623 0 .7229538-.323822.7229538-.7230072 0-.3992233-.3237915-.7185745-.7229538-.7185745C122.6962814 80.6823044 122.3769302 81.0016556 122.3769302 81.4008789zM110.8306503 83.6188812c0 .3991928.3193512.7230072.7186203.7230072.3991699 0 .7229614-.3238144.7229614-.7230072 0-.3992157-.3237915-.7185745-.7229614-.7185745C111.1500015 82.9003067 110.8306503 83.2196655 110.8306503 83.6188812zM119.0302658 79.1183395c0 .3991928.3193512.7230072.7186203.7230072.3991699 0 .7229614-.3238144.7229614-.7230072 0-.3992157-.3237915-.7185745-.7229614-.7185745C119.349617 78.399765 119.0302658 78.7191238 119.0302658 79.1183395zM127.3737335 83.6188812c0 .3991928.3193512.7230072.7186279.7230072.3991547 0 .7229462-.3238144.7229462-.7230072 0-.3992157-.3237915-.7185745-.7229462-.7185745C127.6930847 82.9003067 127.3737335 83.2196655 127.3737335 83.6188812zM110.5429459 91.2019806c0 .3991928.3193512.7230148.7186203.7230148.3991623 0 .7229614-.323822.7229614-.7230148 0-.3992157-.3237991-.7185669-.7229614-.7185669C110.8622971 90.4834137 110.5429459 90.8027649 110.5429459 91.2019806zM113.1322937 88.0372162c0 .3991928.3193512.7230148.7186279.7230148.3991623 0 .7229538-.323822.7229538-.7230148 0-.3992157-.3237915-.7185669-.7229538-.7185669C113.4516449 87.3186493 113.1322937 87.6380005 113.1322937 88.0372162zM115.351738 92.7638168c0 .3991852.3193588.7230072.7186279.7230072.3991623 0 .7229538-.323822.7229538-.7230072 0-.3992233-.3237915-.7185745-.7229538-.7185745C115.6710968 92.0452423 115.351738 92.3645935 115.351738 92.7638168z"></path><path fill="#8eae1f" d="M131.5,111.3185425c-0.3453064-2.1904526-4.3623047-3.9153137-9.2822342-3.9153137     c-0.793335,0-1.5575027,0.0453186-2.2830582,0.1302643c-1.6059265-2.5149078-6.7235413-4.3501587-12.7988815-4.3501587     c-7.3811951,0-13.3404465,2.6961975-13.3404465,6.0381393c0,0.7383881,0.3083344,1.442894,0.8463593,2.0970688H131.5z"></path><rect width="128" height="3.16" x="3.5" y="111.319" fill="#7a8490"></rect><g><rect width="101.714" height="2.654" x="16.643" y="61.105" fill="#994129"></rect><rect width="17.948" height="26.66" x="23.1" y="63.759" fill="#ce9557"></rect><rect width="17.948" height="26.66" x="93.952" y="63.759" fill="#ce9557"></rect><rect width="17.948" height="15.196" x="23.1" y="93.073" fill="#ce9557"></rect><rect width="17.948" height="15.196" x="93.952" y="93.073" fill="#ce9557"></rect><rect width="1.266" height="44.554" x="23.1" y="63.759" opacity=".08"></rect><rect width="1.266" height="44.554" x="110.634" y="63.759" opacity=".08"></rect><rect width="3.983" height="44.554" x="19.117" y="63.759" fill="#daa561"></rect><rect width="3.983" height="44.554" x="111.9" y="63.759" fill="#daa561"></rect><rect width="96.766" height="1.866" x="19.117" y="63.759" opacity=".08"></rect><rect width="96.766" height="1.866" x="19.117" y="93.073" opacity=".08"></rect><rect width="101.714" height="2.654" x="16.643" y="90.419" fill="#994129"></rect><rect width="1.95" height="47.208" x="39.098" y="61.105" opacity=".08"></rect><rect width="1.95" height="47.208" x="93.952" y="61.105" opacity=".08"></rect><rect width="96.766" height="35.562" x="19.117" y="25.543" fill="#ce9557"></rect><rect width="12.028" height="22.64" x="27.32" y="32.004" fill="#efefef"></rect><path fill="#ab5033" d="M39.8365784,55.132473H26.8304939V31.5150986h13.0060844V55.132473z M27.8080978,54.1548691h11.0508766         V32.4927025H27.8080978V54.1548691z"></path><rect width="12.028" height=".978" x="27.319" y="39.209" fill="#ab5033"></rect><rect width=".978" height="7.694" x="32.845" y="32.004" fill="#ab5033"></rect><rect width="12.028" height="22.64" x="44.403" y="32.004" fill="#efefef"></rect><path fill="#ab5033" d="M56.9198112,55.132473H43.9137268V31.5150986h13.0060844V55.132473z M44.8913307,54.1548691h11.0508728         V32.4927025H44.8913307V54.1548691z"></path><rect width="12.028" height=".978" x="44.403" y="39.209" fill="#ab5033"></rect><rect width=".978" height="7.694" x="49.928" y="32.004" fill="#ab5033"></rect><rect width="12.028" height="22.64" x="61.486" y="32.004" fill="#efefef"></rect><path fill="#ab5033" d="M74.0030441,55.132473H60.9969597V31.5150986h13.0060844V55.132473z M61.9745636,54.1548691h11.0508728         V32.4927025H61.9745636V54.1548691z"></path><rect width="12.028" height=".978" x="61.486" y="39.209" fill="#ab5033"></rect><rect width=".978" height="7.694" x="67.011" y="32.004" fill="#ab5033"></rect><rect width="12.028" height="22.64" x="78.569" y="32.004" fill="#efefef"></rect><path fill="#ab5033" d="M91.0862732,55.132473H78.0801926V31.5150986h13.0060806V55.132473z M79.0577927,54.1548691h11.0508804         V32.4927025H79.0577927V54.1548691z"></path><rect width="12.028" height=".978" x="78.569" y="39.209" fill="#ab5033"></rect><rect width=".978" height="7.694" x="84.094" y="32.004" fill="#ab5033"></rect><rect width="12.028" height="22.64" x="95.652" y="32.004" fill="#efefef"></rect><path fill="#ab5033" d="M108.1695099,55.132473H95.1634216V31.5150986h13.0060883V55.132473z M96.1410294,54.1548691         h11.0508728V32.4927025H96.1410294V54.1548691z"></path><rect width="12.028" height=".978" x="95.652" y="39.209" fill="#ab5033"></rect><rect width=".978" height="7.694" x="101.177" y="32.004" fill="#ab5033"></rect><rect width="1.266" height="35.562" x="23.1" y="25.543" opacity=".08"></rect><rect width="1.266" height="35.562" x="110.634" y="25.543" opacity=".08"></rect><rect width="3.983" height="35.562" x="19.117" y="25.543" fill="#daa561"></rect><rect width="3.983" height="35.562" x="111.9" y="25.543" fill="#daa561"></rect><rect width="101.714" height="5.022" x="16.643" y="20.521" fill="#994129"></rect><rect width="101.714" height="3.006" x="16.643" y="108.312" fill="#994129"></rect><g><rect width="52.903" height="47.208" x="41.048" y="61.105" fill="#b7773d"></rect><path fill="#44433f" d="M58.373127,90.3962479v17.9161224h18.2537498V90.3962479      c0-5.0406342-4.0862427-9.1268692-9.1268692-9.1268692h-0.0000153      C62.459362,81.2693787,58.373127,85.3556137,58.373127,90.3962479z"></path><path fill="#daa561" d="M77.2720108,108.3122711h-1.2903366V90.3961868c0-4.6768646-3.8048706-8.4817276-8.4817276-8.4817276       s-8.4817314,3.804863-8.4817314,8.4817276v17.9160843h-1.2903404V90.3961868       c0-5.3881912,4.3838844-9.7720718,9.7720718-9.7720718s9.7720642,4.3838806,9.7720642,9.7720718V108.3122711z"></path><rect width="4.9" height="39.956" x="41.048" y="64.73" fill="#ce9557"></rect><rect width="7.127" height="3.626" x="39.935" y="61.105" fill="#daa561"></rect><rect width="7.127" height="3.626" x="39.935" y="104.687" fill="#daa561"></rect><rect width="4.9" height="39.956" x="50.661" y="64.73" fill="#ce9557"></rect><rect width="7.127" height="3.626" x="49.548" y="61.105" fill="#daa561"></rect><rect width="7.127" height="3.626" x="49.548" y="104.687" fill="#daa561"></rect><rect width="4.9" height="39.956" x="79.439" y="64.73" fill="#ce9557"></rect><rect width="7.127" height="3.626" x="78.325" y="61.105" fill="#daa561"></rect><rect width="7.127" height="3.626" x="78.325" y="104.687" fill="#daa561"></rect><rect width="4.9" height="39.956" x="89.052" y="64.73" fill="#ce9557"></rect><rect width="7.127" height="3.626" x="87.938" y="61.105" fill="#daa561"></rect><rect width="7.127" height="3.626" x="87.938" y="104.687" fill="#daa561"></rect><rect width="55.959" height="5.15" x="39.52" y="52.07" fill="#994129"></rect><rect width="26.285" height="7.185" x="54.357" y="47.347" fill="#994129"></rect><rect width="59.302" height="5.457" x="37.849" y="55.647" fill="#ab5033"></rect><circle cx="67.5" cy="72.016" r="5.678" fill="#44433f"></circle><path fill="#daa561" d="M67.4999466,78.339241c-3.4866943,0-6.3231812-2.8367996-6.3231812-6.323494       s2.8364868-6.323494,6.3231812-6.323494s6.3238068,2.8367996,6.3238068,6.323494S70.9866409,78.339241,67.4999466,78.339241z        M67.4999466,66.9825974c-2.7753677,0-5.0328369,2.257782-5.0328369,5.0331497s2.2574692,5.0331497,5.0328369,5.0331497       s5.0334625-2.257782,5.0334625-5.0331497S70.2753143,66.9825974,67.4999466,66.9825974z"></path><path fill="#fff" d="M57.3675499 51.553875c.0924721.1150284.2169228.1725426.3731041.1725426.1564331 0 .2801399-.0575142.3713684-.1725426.0912323-.1150322.1368484-.2717094.1368484-.4710312v-1.3714371h.5545731v1.389286c0 .3599663-.099659.6366348-.298481.8300056-.1990738.193367-.4539261.2895584-.7643089.2895584s-.565731-.0971832-.7657928-.2915421c-.2003098-.1943626-.3002205-.4700394-.3002205-.828022v-1.389286h.5543289v1.3714371C57.2289696 51.2821655 57.2750816 51.4388428 57.3675499 51.553875zM61.1169395 49.7114067h.5545731v2.4840584h-.5545731l-1.1835213-1.5568733v1.5568733h-.5543251v-2.4840584h.5188751l1.2189713 1.5990181V49.7114067zM62.2828598 49.7114067h.5543251v2.4840584h-.5543251V49.7114067zM64.3655548 51.2930717l.6324158-1.581665h.6006851l-.9985809 2.4840584h-.4692917l-.9985847-2.4840584h.6006851L64.3655548 51.2930717zM67.6848145 49.7114067v.4938393H66.447998v.5116844h1.1123657v.473011H66.447998v.5151558h1.2759857v.4903679h-1.8303146v-2.4840584H67.6848145zM70.2328339 50.5354614c0 .3986359-.1574249.6554718-.4725189.7714958l.628952.8885078h-.682251l-.5508575-.7923203h-.3840103v.7923203h-.5543213v-2.4840584h.941803c.3862457 0 .6616745.0649529.8262863.1953545C70.150528 50.0366669 70.2328339 50.2468948 70.2328339 50.5354614zM69.5647202 50.8309669c.0686722-.0614815.1031265-.1596527.1031265-.2935219 0-.133873-.0354462-.2256012-.1065979-.2756767-.0711517-.0495834-.1956024-.0743752-.3731079-.0743752h-.4159927v.7357979h.4053345C69.3668823 50.9231911 69.496048 50.8924484 69.5647202 50.8309669zM71.3826447 50.2072258c-.0533066.0436325-.0800781.1016464-.0800781.1735382 0 .0723915.0327225.1299057.0979233.1725464.0649567.0426407.2154312.0932121.4511948.151226.2357635.0580101.4187241.1452751.5491257.2612953.130394.1160202.1955948.2855911.1955948.5082169 0 .2226219-.0835419.4030991-.2506332.5419312-.1670914.1388283-.3867416.2082443-.6591949.2082443-.3934326 0-.7476959-.145771-1.0627899-.4373131l.3304672-.4055824c.2677383.2350197.5154037.3520317.742981.3520317.1016464 0 .1817245-.0218163.2397308-.0654488.0580139-.0441284.0870209-.1031303.0870209-.1779976 0-.0748711-.0307465-.133873-.0922241-.1775055-.0617294-.0441284-.1837006-.088253-.3661652-.1333733-.2890625-.0684242-.5005264-.1581688-.6343994-.2682381-.133873-.110569-.2008057-.2831154-.2008057-.5191231 0-.2355156.0847855-.4174805.2541046-.5454025.1693268-.1279221.3807907-.1918831.6343994-.1918831.1658554 0 .3317032.0282631.4975586.0852814.1658478.0570183.310379.1373405.4335938.2414627l-.280632.4055824c-.215683-.16362-.4385529-.24543-.6683655-.24543C71.5088272 50.1412849 71.4359436 50.1631012 71.3826447 50.2072258zM73.068924 49.7114067h.5543289v2.4840584H73.068924V49.7114067zM75.2864761 50.1908646v2.0046005h-.5543213v-2.0046005h-.7038193v-.4794579h1.9619598v.4794579H75.2864761zM77.4653549 52.1954651h-.5543213v-.980732l-.8602524-1.5033264h.6006851l.5367279.9237137.5367279-.9237137h.6004333l-.8600006 1.5033264V52.1954651z"></path></g><g><rect width="10.58" height="13.663" x="26.784" y="70.257" fill="#efefef"></rect><path fill="#994129" d="M26.4305401,84.2739639V69.90345h11.2874203v14.3705139H26.4305401z M27.1378021,70.6107178v12.955986       h9.8728943v-12.955986H27.1378021z"></path><rect width=".707" height="13.663" x="31.721" y="70.257" fill="#994129"></rect><rect width="5.566" height=".707" x="26.784" y="74.255" fill="#994129"></rect></g><g><rect width="10.58" height="13.663" x="97.636" y="70.257" fill="#efefef"></rect><path fill="#994129" d="M97.2820435,84.2739639V69.90345h11.2874146v14.3705139H97.2820435z M97.9893036,70.6107178v12.955986       h9.8728943v-12.955986H97.9893036z"></path><rect width=".707" height="13.663" x="102.572" y="70.257" fill="#994129"></rect><rect width="5.566" height=".707" x="97.636" y="74.255" fill="#994129"></rect></g><g><rect width="10.581" height="8.702" x="26.784" y="96.32" fill="#efefef"></rect><path fill="#994129" d="M26.4302959,105.3759003v-9.4098587h11.2879086v9.4098587H26.4302959z M27.1375904,96.6733398v7.9952698       H37.01091v-7.9952698H27.1375904z"></path><rect width=".707" height="8.703" x="31.721" y="96.32" fill="#994129"></rect><rect width="5.567" height=".707" x="26.784" y="100.318" fill="#994129"></rect></g><g><rect width="10.581" height="8.702" x="97.635" y="96.32" fill="#efefef"></rect><path fill="#994129" d="M97.2817993,105.3759003v-9.4098587h11.2879028v9.4098587H97.2817993z M97.98909,96.6733398v7.9952698       h9.8733215v-7.9952698H97.98909z"></path><rect width=".707" height="8.703" x="102.572" y="96.32" fill="#994129"></rect><rect width="5.567" height=".707" x="97.635" y="100.318" fill="#994129"></rect></g></g></svg>